<svg xmlns="http://www.w3.org/2000/svg" width="170mm" height="133.0mm" viewBox="0 0 1700.0 1330.0">
<rect width="100%" height="100%" fill="white"/>
<rect x="40.0" y="15.0" width="1620.0" height="60.0" rx="10" fill="none" stroke="none" stroke-width="2.2"/>
<text x="850.0" y="45.0" font-family="SimHei" font-size="42.0" fill="#263238" text-anchor="middle" dominant-baseline="central">(a) 可穿戴睡眠闭环系统架构</text>
<rect x="40.0" y="210.0" width="260.0" height="145.0" rx="10" fill="#EAF0F6" stroke="#63758A" stroke-width="2.2"/>
<text x="170.0" y="246.1" font-family="SimHei" font-size="28.0" fill="#263238" text-anchor="middle" dominant-baseline="central">采集与质控</text>
<text x="170.0" y="282.5" font-family="SimHei" font-size="28.0" fill="#263238" text-anchor="middle" dominant-baseline="central">EEG主信号</text>
<text x="170.0" y="318.9" font-family="SimHei" font-size="28.0" fill="#263238" text-anchor="middle" dominant-baseline="central">因果处理与质控</text>
<rect x="380.0" y="210.0" width="260.0" height="145.0" rx="10" fill="#EAF0F6" stroke="#63758A" stroke-width="2.2"/>
<text x="510.0" y="246.1" font-family="SimHei" font-size="28.0" fill="#263238" text-anchor="middle" dominant-baseline="central">在线识别</text>
<text x="510.0" y="282.5" font-family="SimHei" font-size="28.0" fill="#263238" text-anchor="middle" dominant-baseline="central">阶段／事件／相位</text>
<text x="510.0" y="318.9" font-family="SimHei" font-size="28.0" fill="#263238" text-anchor="middle" dominant-baseline="central">按任务选用</text>
<rect x="720.0" y="210.0" width="260.0" height="145.0" rx="10" fill="#EAF0F6" stroke="#63758A" stroke-width="2.2"/>
<text x="850.0" y="246.1" font-family="SimHei" font-size="28.0" fill="#263238" text-anchor="middle" dominant-baseline="central">决策与安全门控</text>
<text x="850.0" y="282.5" font-family="SimHei" font-size="28.0" fill="#263238" text-anchor="middle" dominant-baseline="central">触发、拒绝或暂停</text>
<text x="850.0" y="318.9" font-family="SimHei" font-size="28.0" fill="#263238" text-anchor="middle" dominant-baseline="central">条件详见(b)</text>
<rect x="1060.0" y="210.0" width="260.0" height="145.0" rx="10" fill="#E5F1E3" stroke="#63758A" stroke-width="2.2"/>
<text x="1190.0" y="246.1" font-family="SimHei" font-size="28.0" fill="#263238" text-anchor="middle" dominant-baseline="central">刺激执行</text>
<text x="1190.0" y="282.5" font-family="SimHei" font-size="28.0" fill="#263238" text-anchor="middle" dominant-baseline="central">物理输出作用于</text>
<text x="1190.0" y="318.9" font-family="SimHei" font-size="28.0" fill="#263238" text-anchor="middle" dominant-baseline="central">睡眠中的受试者</text>
<rect x="1400.0" y="210.0" width="260.0" height="145.0" rx="10" fill="#E5F1E3" stroke="#63758A" stroke-width="2.2"/>
<text x="1530.0" y="246.1" font-family="SimHei" font-size="28.0" fill="#263238" text-anchor="middle" dominant-baseline="central">响应监测</text>
<text x="1530.0" y="282.5" font-family="SimHei" font-size="28.0" fill="#263238" text-anchor="middle" dominant-baseline="central">持续采集信号</text>
<text x="1530.0" y="318.9" font-family="SimHei" font-size="28.0" fill="#263238" text-anchor="middle" dominant-baseline="central">脑电响应／觉醒</text>
<rect x="40.0" y="110.0" width="620.0" height="80.0" rx="10" fill="none" stroke="none" stroke-width="2.2"/>
<text x="350.0" y="133.1" font-family="SimHei" font-size="26.0" fill="#263238" text-anchor="middle" dominant-baseline="central">可选辅助信号</text>
<text x="350.0" y="166.9" font-family="SimHei" font-size="26.0" fill="#263238" text-anchor="middle" dominant-baseline="central">EOG、EMG、PPG、加速度</text>
<rect x="40.0" y="435.0" width="1620.0" height="55.0" rx="10" fill="#F1D7D4" stroke="#B44948" stroke-width="2.2"/>
<text x="850.0" y="462.5" font-family="SimHei" font-size="30.0" fill="#263238" text-anchor="middle" dominant-baseline="central">独立记录与验证层：本文组织的评价维度</text>
<rect x="40.0" y="520.0" width="260.0" height="105.0" rx="10" fill="#F2F3F5" stroke="#9AA1A8" stroke-width="2.2"/>
<text x="170.0" y="554.95" font-family="SimHei" font-size="27.0" fill="#263238" text-anchor="middle" dominant-baseline="central">信号质量</text>
<text x="170.0" y="590.05" font-family="SimHei" font-size="27.0" fill="#263238" text-anchor="middle" dominant-baseline="central">有效数据／伪影</text>
<rect x="380.0" y="520.0" width="260.0" height="105.0" rx="10" fill="#F2F3F5" stroke="#9AA1A8" stroke-width="2.2"/>
<text x="510.0" y="554.95" font-family="SimHei" font-size="27.0" fill="#263238" text-anchor="middle" dominant-baseline="central">在线识别</text>
<text x="510.0" y="590.05" font-family="SimHei" font-size="27.0" fill="#263238" text-anchor="middle" dominant-baseline="central">任务性能／置信度</text>
<rect x="720.0" y="520.0" width="260.0" height="105.0" rx="10" fill="#F2F3F5" stroke="#9AA1A8" stroke-width="2.2"/>
<text x="850.0" y="554.95" font-family="SimHei" font-size="27.0" fill="#263238" text-anchor="middle" dominant-baseline="central">命中与时延</text>
<text x="850.0" y="590.05" font-family="SimHei" font-size="27.0" fill="#263238" text-anchor="middle" dominant-baseline="central">物理到达／时延</text>
<rect x="1060.0" y="520.0" width="260.0" height="105.0" rx="10" fill="#F2F3F5" stroke="#9AA1A8" stroke-width="2.2"/>
<text x="1190.0" y="554.95" font-family="SimHei" font-size="27.0" fill="#263238" text-anchor="middle" dominant-baseline="central">运行与安全</text>
<text x="1190.0" y="590.05" font-family="SimHei" font-size="27.0" fill="#263238" text-anchor="middle" dominant-baseline="central">失败夜／拒绝／停机</text>
<rect x="1400.0" y="520.0" width="260.0" height="105.0" rx="10" fill="#F2F3F5" stroke="#9AA1A8" stroke-width="2.2"/>
<text x="1530.0" y="554.95" font-family="SimHei" font-size="27.0" fill="#263238" text-anchor="middle" dominant-baseline="central">生理与功能结局</text>
<text x="1530.0" y="590.05" font-family="SimHei" font-size="27.0" fill="#263238" text-anchor="middle" dominant-baseline="central">短窗／整夜／长期</text>
<rect x="40.0" y="635.0" width="1620.0" height="48.0" rx="10" fill="none" stroke="none" stroke-width="2.2"/>
<text x="850.0" y="659.0" font-family="SimHei" font-size="27.0" fill="#263238" text-anchor="middle" dominant-baseline="central">结合运行日志与独立结局测量；评价不等于实时反馈，各维度不代表均已验证。</text>
<rect x="40.0" y="705.0" width="1620.0" height="60.0" rx="10" fill="none" stroke="none" stroke-width="2.2"/>
<text x="850.0" y="735.0" font-family="SimHei" font-size="42.0" fill="#263238" text-anchor="middle" dominant-baseline="central">(b) 闭环决策与安全反馈</text>
<rect x="40.0" y="770.0" width="1620.0" height="45.0" rx="10" fill="none" stroke="none" stroke-width="2.2"/>
<text x="850.0" y="792.5" font-family="SimHei" font-size="27.0" fill="#263238" text-anchor="middle" dominant-baseline="central">输入：信号质量、睡眠阶段、事件或相位、置信度、既往刺激与剂量记录</text>
<rect x="40.0" y="855.0" width="260.0" height="145.0" rx="10" fill="#EAF0F6" stroke="#63758A" stroke-width="2.2"/>
<text x="170.0" y="891.1" font-family="SimHei" font-size="28.0" fill="#263238" text-anchor="middle" dominant-baseline="central">准入检查</text>
<text x="170.0" y="927.5" font-family="SimHei" font-size="28.0" fill="#263238" text-anchor="middle" dominant-baseline="central">质量与状态</text>
<text x="170.0" y="963.9" font-family="SimHei" font-size="28.0" fill="#263238" text-anchor="middle" dominant-baseline="central">是否满足条件？</text>
<rect x="380.0" y="855.0" width="260.0" height="145.0" rx="10" fill="#EAF0F6" stroke="#63758A" stroke-width="2.2"/>
<text x="510.0" y="891.1" font-family="SimHei" font-size="28.0" fill="#263238" text-anchor="middle" dominant-baseline="central">目标条件检查</text>
<text x="510.0" y="927.5" font-family="SimHei" font-size="28.0" fill="#263238" text-anchor="middle" dominant-baseline="central">按范式选用</text>
<text x="510.0" y="963.9" font-family="SimHei" font-size="28.0" fill="#263238" text-anchor="middle" dominant-baseline="central">阶段／事件／相位</text>
<rect x="720.0" y="855.0" width="260.0" height="145.0" rx="10" fill="#EAF0F6" stroke="#63758A" stroke-width="2.2"/>
<text x="850.0" y="891.1" font-family="SimHei" font-size="28.0" fill="#263238" text-anchor="middle" dominant-baseline="central">时机与剂量检查</text>
<text x="850.0" y="927.5" font-family="SimHei" font-size="28.0" fill="#263238" text-anchor="middle" dominant-baseline="central">预设时机、间隔</text>
<text x="850.0" y="963.9" font-family="SimHei" font-size="28.0" fill="#263238" text-anchor="middle" dominant-baseline="central">及剂量限制</text>
<rect x="1060.0" y="855.0" width="260.0" height="145.0" rx="10" fill="#E5F1E3" stroke="#63758A" stroke-width="2.2"/>
<text x="1190.0" y="891.1" font-family="SimHei" font-size="28.0" fill="#263238" text-anchor="middle" dominant-baseline="central">生成刺激指令</text>
<text x="1190.0" y="927.5" font-family="SimHei" font-size="28.0" fill="#263238" text-anchor="middle" dominant-baseline="central">执行刺激</text>
<text x="1190.0" y="963.9" font-family="SimHei" font-size="28.0" fill="#263238" text-anchor="middle" dominant-baseline="central">持续监测响应</text>
<rect x="1400.0" y="855.0" width="260.0" height="145.0" rx="10" fill="#E5F1E3" stroke="#63758A" stroke-width="2.2"/>
<text x="1530.0" y="891.1" font-family="SimHei" font-size="28.0" fill="#263238" text-anchor="middle" dominant-baseline="central">刺激后检查</text>
<text x="1530.0" y="927.5" font-family="SimHei" font-size="28.0" fill="#263238" text-anchor="middle" dominant-baseline="central">觉醒与信号状态</text>
<text x="1530.0" y="963.9" font-family="SimHei" font-size="28.0" fill="#263238" text-anchor="middle" dominant-baseline="central">决定暂停或重判</text>
<rect x="40.0" y="1085.0" width="940.0" height="80.0" rx="10" fill="#F2F3F5" stroke="#9AA1A8" stroke-width="2.2"/>
<text x="510.0" y="1125.0" font-family="SimHei" font-size="28.0" fill="#263238" text-anchor="middle" dominant-baseline="central">不满足条件：拒绝／等待 → 获取更新信息后重新判断</text>
<rect x="1120.0" y="1085.0" width="540.0" height="80.0" rx="10" fill="#F2F3F5" stroke="#9AA1A8" stroke-width="2.2"/>
<text x="1390.0" y="1106.8" font-family="SimHei" font-size="28.0" fill="#263238" text-anchor="middle" dominant-baseline="central">风险触发：暂停</text>
<text x="1390.0" y="1143.2" font-family="SimHei" font-size="28.0" fill="#263238" text-anchor="middle" dominant-baseline="central">满足恢复条件后重新判断</text>
<rect x="40.0" y="1230.0" width="1620.0" height="45.0" rx="10" fill="none" stroke="none" stroke-width="2.2"/>
<text x="850.0" y="1252.5" font-family="SimHei" font-size="26.0" fill="#263238" text-anchor="middle" dominant-baseline="central">综合控制框架，非单一系统算法；响应驱动的参数更新见(a)虚线路径。</text>
<rect x="40.0" y="1280.0" width="1620.0" height="40.0" rx="10" fill="none" stroke="none" stroke-width="2.2"/>
<text x="850.0" y="1300.0" font-family="SimHei" font-size="26.0" fill="#263238" text-anchor="middle" dominant-baseline="central">图例：实线＝主流程   长虚线＝安全反馈   短虚线＝可选更新   点线＝日志关联</text>
<polyline points="300.0,285.0 380.0,285.0" fill="none" stroke="#263238" stroke-width="2.2" stroke-dasharray=""/>
<polygon points="380.0,285.0 368.0,280.0 368.0,290.0" fill="#263238"/>
<rect x="310.0" y="268.1" width="60.00000000000001" height="33.800000000000004" rx="0" fill="#FFFFFF" stroke="none" stroke-width="2.2"/>
<text x="340.0" y="285.0" font-family="SimHei" font-size="26.0" fill="#263238" text-anchor="middle" dominant-baseline="central">信号</text>
<polyline points="640.0,285.0 720.0,285.0" fill="none" stroke="#263238" stroke-width="2.2" stroke-dasharray=""/>
<polygon points="720.0,285.0 708.0,280.0 708.0,290.0" fill="#263238"/>
<rect x="650.0" y="268.1" width="60.00000000000001" height="33.800000000000004" rx="0" fill="#FFFFFF" stroke="none" stroke-width="2.2"/>
<text x="680.0" y="285.0" font-family="SimHei" font-size="26.0" fill="#263238" text-anchor="middle" dominant-baseline="central">估计</text>
<polyline points="980.0,285.0 1060.0,285.0" fill="none" stroke="#263238" stroke-width="2.2" stroke-dasharray=""/>
<polygon points="1060.0,285.0 1048.0,280.0 1048.0,290.0" fill="#263238"/>
<rect x="990.0" y="268.1" width="60.00000000000001" height="33.800000000000004" rx="0" fill="#FFFFFF" stroke="none" stroke-width="2.2"/>
<text x="1020.0" y="285.0" font-family="SimHei" font-size="26.0" fill="#263238" text-anchor="middle" dominant-baseline="central">指令</text>
<polyline points="1320.0,285.0 1400.0,285.0" fill="none" stroke="#263238" stroke-width="2.2" stroke-dasharray=""/>
<polygon points="1400.0,285.0 1388.0,280.0 1388.0,290.0" fill="#263238"/>
<rect x="1330.0" y="268.1" width="60.00000000000001" height="33.800000000000004" rx="0" fill="#FFFFFF" stroke="none" stroke-width="2.2"/>
<text x="1360.0" y="285.0" font-family="SimHei" font-size="26.0" fill="#263238" text-anchor="middle" dominant-baseline="central">响应</text>
<polyline points="1490.0,210.0 1490.0,155.0 920.0,155.0 920.0,210.0" fill="none" stroke="#6B7280" stroke-width="2.2" stroke-dasharray="12,3"/>
<polygon points="920.0,210.0 925.0,198.0 915.0,198.0" fill="#6B7280"/>
<rect x="1006.0" y="138.1" width="398.00000000000006" height="33.800000000000004" rx="0" fill="#FFFFFF" stroke="none" stroke-width="2.2"/>
<text x="1205.0" y="155.0" font-family="SimHei" font-size="26.0" fill="#263238" text-anchor="middle" dominant-baseline="central">安全反馈：暂停／拒绝／恢复判断</text>
<polyline points="1600.0,210.0 1600.0,95.0 785.0,95.0 785.0,210.0" fill="none" stroke="#6B7280" stroke-width="2.2" stroke-dasharray="4,5"/>
<polygon points="785.0,210.0 790.0,198.0 780.0,198.0" fill="#6B7280"/>
<rect x="1006.5" y="78.1" width="372.00000000000006" height="33.800000000000004" rx="0" fill="#FFFFFF" stroke="none" stroke-width="2.2"/>
<text x="1192.5" y="95.0" font-family="SimHei" font-size="26.0" fill="#263238" text-anchor="middle" dominant-baseline="central">可选自适应更新：需系统级验证</text>
<polyline points="170.0,355.0 170.0,435.0" fill="none" stroke="#6B7280" stroke-width="2.2" stroke-dasharray="2,5"/>
<rect x="140.0" y="378.1" width="60.00000000000001" height="33.800000000000004" rx="0" fill="#FFFFFF" stroke="none" stroke-width="2.2"/>
<text x="170.0" y="395.0" font-family="SimHei" font-size="26.0" fill="#263238" text-anchor="middle" dominant-baseline="central">日志</text>
<polyline points="170.0,490.0 170.0,520.0" fill="none" stroke="#6B7280" stroke-width="2.2" stroke-dasharray="2,5"/>
<polyline points="510.0,355.0 510.0,435.0" fill="none" stroke="#6B7280" stroke-width="2.2" stroke-dasharray="2,5"/>
<polyline points="510.0,490.0 510.0,520.0" fill="none" stroke="#6B7280" stroke-width="2.2" stroke-dasharray="2,5"/>
<polyline points="850.0,355.0 850.0,435.0" fill="none" stroke="#6B7280" stroke-width="2.2" stroke-dasharray="2,5"/>
<polyline points="850.0,490.0 850.0,520.0" fill="none" stroke="#6B7280" stroke-width="2.2" stroke-dasharray="2,5"/>
<polyline points="1190.0,355.0 1190.0,435.0" fill="none" stroke="#6B7280" stroke-width="2.2" stroke-dasharray="2,5"/>
<polyline points="1190.0,490.0 1190.0,520.0" fill="none" stroke="#6B7280" stroke-width="2.2" stroke-dasharray="2,5"/>
<polyline points="1530.0,355.0 1530.0,435.0" fill="none" stroke="#6B7280" stroke-width="2.2" stroke-dasharray="2,5"/>
<polyline points="1530.0,490.0 1530.0,520.0" fill="none" stroke="#6B7280" stroke-width="2.2" stroke-dasharray="2,5"/>
<polyline points="300.0,925.0 380.0,925.0" fill="none" stroke="#263238" stroke-width="2.2" stroke-dasharray=""/>
<polygon points="380.0,925.0 368.0,920.0 368.0,930.0" fill="#263238"/>
<rect x="310.0" y="908.1" width="60.00000000000001" height="33.800000000000004" rx="0" fill="#FFFFFF" stroke="none" stroke-width="2.2"/>
<text x="340.0" y="925.0" font-family="SimHei" font-size="26.0" fill="#263238" text-anchor="middle" dominant-baseline="central">通过</text>
<polyline points="640.0,925.0 720.0,925.0" fill="none" stroke="#263238" stroke-width="2.2" stroke-dasharray=""/>
<polygon points="720.0,925.0 708.0,920.0 708.0,930.0" fill="#263238"/>
<rect x="650.0" y="908.1" width="60.00000000000001" height="33.800000000000004" rx="0" fill="#FFFFFF" stroke="none" stroke-width="2.2"/>
<text x="680.0" y="925.0" font-family="SimHei" font-size="26.0" fill="#263238" text-anchor="middle" dominant-baseline="central">通过</text>
<polyline points="980.0,925.0 1060.0,925.0" fill="none" stroke="#263238" stroke-width="2.2" stroke-dasharray=""/>
<polygon points="1060.0,925.0 1048.0,920.0 1048.0,930.0" fill="#263238"/>
<rect x="990.0" y="908.1" width="60.00000000000001" height="33.800000000000004" rx="0" fill="#FFFFFF" stroke="none" stroke-width="2.2"/>
<text x="1020.0" y="925.0" font-family="SimHei" font-size="26.0" fill="#263238" text-anchor="middle" dominant-baseline="central">通过</text>
<polyline points="1320.0,925.0 1400.0,925.0" fill="none" stroke="#263238" stroke-width="2.2" stroke-dasharray=""/>
<polygon points="1400.0,925.0 1388.0,920.0 1388.0,930.0" fill="#263238"/>
<rect x="1330.0" y="908.1" width="60.00000000000001" height="33.800000000000004" rx="0" fill="#FFFFFF" stroke="none" stroke-width="2.2"/>
<text x="1360.0" y="925.0" font-family="SimHei" font-size="26.0" fill="#263238" text-anchor="middle" dominant-baseline="central">响应</text>
<polyline points="1530.0,855.0 1530.0,835.0 170.0,835.0 170.0,855.0" fill="none" stroke="#6B7280" stroke-width="2.2" stroke-dasharray="12,3"/>
<polygon points="170.0,855.0 175.0,843.0 165.0,843.0" fill="#6B7280"/>
<rect x="677.0" y="818.1" width="346.00000000000006" height="33.800000000000004" rx="0" fill="#FFFFFF" stroke="none" stroke-width="2.2"/>
<text x="850.0" y="835.0" font-family="SimHei" font-size="26.0" fill="#263238" text-anchor="middle" dominant-baseline="central">未触发暂停：下一轮重新判断</text>
<polyline points="170.0,1000.0 170.0,1085.0" fill="none" stroke="#263238" stroke-width="2.2" stroke-dasharray=""/>
<polygon points="170.0,1085.0 175.0,1073.0 165.0,1073.0" fill="#263238"/>
<rect x="153.0" y="1025.6" width="34.0" height="33.800000000000004" rx="0" fill="#FFFFFF" stroke="none" stroke-width="2.2"/>
<text x="170.0" y="1042.5" font-family="SimHei" font-size="26.0" fill="#263238" text-anchor="middle" dominant-baseline="central">否</text>
<polyline points="510.0,1000.0 510.0,1085.0" fill="none" stroke="#263238" stroke-width="2.2" stroke-dasharray=""/>
<polygon points="510.0,1085.0 515.0,1073.0 505.0,1073.0" fill="#263238"/>
<rect x="493.0" y="1025.6" width="34.0" height="33.800000000000004" rx="0" fill="#FFFFFF" stroke="none" stroke-width="2.2"/>
<text x="510.0" y="1042.5" font-family="SimHei" font-size="26.0" fill="#263238" text-anchor="middle" dominant-baseline="central">否</text>
<polyline points="850.0,1000.0 850.0,1085.0" fill="none" stroke="#263238" stroke-width="2.2" stroke-dasharray=""/>
<polygon points="850.0,1085.0 855.0,1073.0 845.0,1073.0" fill="#263238"/>
<rect x="833.0" y="1025.6" width="34.0" height="33.800000000000004" rx="0" fill="#FFFFFF" stroke="none" stroke-width="2.2"/>
<text x="850.0" y="1042.5" font-family="SimHei" font-size="26.0" fill="#263238" text-anchor="middle" dominant-baseline="central">否</text>
<polyline points="1530.0,1000.0 1530.0,1085.0" fill="none" stroke="#6B7280" stroke-width="2.2" stroke-dasharray="12,3"/>
<polygon points="1530.0,1085.0 1535.0,1073.0 1525.0,1073.0" fill="#6B7280"/>
<rect x="1500.0" y="1025.6" width="60.00000000000001" height="33.800000000000004" rx="0" fill="#FFFFFF" stroke="none" stroke-width="2.2"/>
<text x="1530.0" y="1042.5" font-family="SimHei" font-size="26.0" fill="#263238" text-anchor="middle" dominant-baseline="central">风险</text>
<polyline points="40.0,1125.0 15.0,1125.0 15.0,925.0 40.0,925.0" fill="none" stroke="#6B7280" stroke-width="2.2" stroke-dasharray="12,3"/>
<polygon points="40.0,925.0 28.0,920.0 28.0,930.0" fill="#6B7280"/>
<polyline points="1390.0,1165.0 1390.0,1205.0 170.0,1205.0 170.0,1165.0" fill="none" stroke="#6B7280" stroke-width="2.2" stroke-dasharray="12,3"/>
<polygon points="170.0,1165.0 165.0,1177.0 175.0,1177.0" fill="#6B7280"/>
<rect x="633.0" y="1188.1" width="294.0" height="33.800000000000004" rx="0" fill="#FFFFFF" stroke="none" stroke-width="2.2"/>
<text x="780.0" y="1205.0" font-family="SimHei" font-size="26.0" fill="#263238" text-anchor="middle" dominant-baseline="central">满足恢复条件后重新判断</text>
</svg>